<?xml version="1.0" encoding="utf-8"?>
<!-- Generator: Adobe Illustrator 23.0.3, SVG Export Plug-In . SVG Version: 6.00 Build 0)  -->
<svg fill="#fff48a" version="1.1" id="Layer_1" xmlns="http://www.w3.org/2000/svg" xmlns:xlink="http://www.w3.org/1999/xlink" x="0px" y="0px"
	 viewBox="0 0 56 56" style="enable-background:new 0 0 56 56;" xml:space="preserve">
<style type="text/css">
	.st0{fill:#FFFFFF;stroke:#191919;stroke-width:2;stroke-linecap:round;stroke-linejoin:round;}
	.st1{stroke:#191919;stroke-width:2;stroke-linecap:round;stroke-linejoin:round;}
	.st2{fill:#FFFFFF;}
</style>
<path d="M28,0L28,0c15.5,0,28,12.5,28,28l0,0c0,15.5-12.5,28-28,28l0,0C12.5,56,0,43.5,0,28l0,0C0,12.5,12.5,0,28,0z"/>
<path class="st0" d="M47.7,32.3c0-0.1,0.1-0.3,0.1-0.4c0-0.2,0-0.3-0.1-0.5l-1.6-4.3l0.6-1.7l0.9-2.5c0.2-0.6,0-1.4-0.6-1.7l-4-2.5
	l-1.3-4.4c-0.2-0.6-0.8-1.1-1.4-1.1l-4.6,0.2l-3.6-2.8c-0.6-0.5-1.4-0.5-1.9,0l-3.6,2.8L22.1,13l0,0l0,0c-0.6,0-1.3,0.5-1.4,1.1
	l-1.3,4.4l-4,2.5c-0.2,0.1-0.4,0.3-0.5,0.5c0,0,0,0.1-0.1,0.1c0,0.1-0.1,0.1-0.1,0.2s-0.1,0.3-0.1,0.4c0,0.2,0,0.3,0.1,0.5l1.6,4.3
	l-0.6,1.7l-0.9,2.5c-0.2,0.6,0,1.4,0.6,1.7l4,2.5l1.3,4.4c0.2,0.6,0.8,1.1,1.4,1.1l4.6-0.2l3.6,2.8c0.6,0.5,1.4,0.5,1.9,0l3.6-2.8
	l4.5,0.2l0,0l0,0c0.6,0,1.3-0.5,1.4-1.1l1.3-4.4l4-2.5c0.2-0.1,0.4-0.3,0.5-0.5c0,0,0-0.1,0.1-0.1C47.7,32.4,47.7,32.4,47.7,32.3z"
	/>
<path class="st1" d="M9.4,40.1l2.7,4.1"/>
<path class="st2" d="M24.4,21.6l10,15.7L24.4,21.6z"/>
<path class="st1" d="M24.4,21.6l10,15.7"/>
<path class="st1" d="M16.3,41.8l1.4,2.1c0.5,0.8,1.3,1.3,2.1,1.4c0.8,0.2,1.7,0,2.5-0.5c1.6-1.1,1.9-3.2,0.9-4.7L23,39.8"/>
<path class="st0" d="M33.4,36.5l-21.8,7L10,40.9l14.6-18.3L33.4,36.5z"/>
</svg>
