<?xml version="1.0" encoding="utf-8"?>
<!-- Generator: Adobe Illustrator 23.0.3, SVG Export Plug-In . SVG Version: 6.00 Build 0)  -->
<svg fill="#ffd6b0" version="1.1" id="Layer_1" xmlns="http://www.w3.org/2000/svg" xmlns:xlink="http://www.w3.org/1999/xlink" x="0px" y="0px"
	 viewBox="0 0 56 56" style="enable-background:new 0 0 56 56;" xml:space="preserve">
<style type="text/css">
	.st0{fill-rule:evenodd;clip-rule:evenodd;fill:#FFFFFF;}
	.st1{fill:#FFFFFF;stroke:#191919;stroke-width:2;stroke-linecap:round;stroke-linejoin:round;}
	.st2{fill:none;stroke:#191919;stroke-width:2;stroke-linecap:round;stroke-linejoin:round;}
	.st3{stroke:#191919;stroke-width:2;stroke-linecap:round;stroke-linejoin:round;}
</style>
<path d="M28,0L28,0c15.5,0,28,12.5,28,28l0,0c0,15.5-12.5,28-28,28l0,0C12.5,56,0,43.5,0,28l0,0C0,12.5,12.5,0,28,0z"/>
<path class="st0" d="M37.7,32.9H18.1c-2.2,0-4.2-1.5-4.7-3.7L11,19.8c-0.1-0.4,0-0.8,0.2-1c0.2-0.3,0.6-0.5,1-0.5h28"/>
<path class="st1" d="M37.7,32.9H18.1c-2.2,0-4.2-1.5-4.7-3.7L11,19.8c-0.1-0.4,0-0.8,0.2-1c0.2-0.3,0.6-0.5,1-0.5h28L37.7,32.9z"/>
<path class="st2" d="M18.3,40.2h16.1c1.2,0,2.2-0.9,2.4-2L41,13c0.2-1.2,1.2-2,2.4-2H45"/>
<path class="st3" d="M21.3,43.8c0.3,0,0.6,0.3,0.6,0.6c0,0.3-0.3,0.6-0.6,0.6c-0.3,0-0.6-0.3-0.6-0.6C20.7,44.1,21,43.8,21.3,43.8"
	/>
<path class="st3" d="M33.5,43.8c0.3,0,0.6,0.3,0.6,0.6c0,0.3-0.3,0.6-0.6,0.6c-0.3,0-0.6-0.3-0.6-0.6C32.9,44.1,33.1,43.8,33.5,43.8
	"/>
<path class="st3" d="M18.3,23.1v3.7"/>
<path class="st3" d="M25.6,23.1v3.7"/>
<path class="st3" d="M32.9,23.1v3.7"/>
</svg>
